<svg width="48" height="48" viewBox="0 0 48 48" fill="none" xmlns="http://www.w3.org/2000/svg">
<path d="M24 4C35.0457 4 44 12.9543 44 24C44 35.0457 35.0457 44 24 44C12.9543 44 4 35.0457 4 24C4 12.9543 12.9543 4 24 4ZM24 5.5C13.7827 5.5 5.5 13.7827 5.5 24C5.5 34.2173 13.7827 42.5 24 42.5C34.2173 42.5 42.5 34.2173 42.5 24C42.5 13.7827 34.2173 5.5 24 5.5ZM27.4121 16.4326C29.2333 15.7357 30.978 15.8643 32.2598 16.9453L32.3848 17.0566L32.9697 16.8926L33.459 16.751L33.8428 16.6279L34.291 16.4658C34.5019 16.383 34.7016 16.2949 34.8945 16.1982L35.0078 16.1514L35.1172 16.127L35.2314 16.1182C35.8232 16.1188 36.1193 16.7124 35.9561 17.1768L35.9492 17.1904L35.9258 17.2803C35.8163 17.6567 35.6391 18.1049 35.3945 18.6436L35.2666 18.9209L34.9766 19.5225L34.5127 20.4482L34.1494 21.1875C34.1475 21.1881 34.1455 21.1856 34.1436 21.1729L34.1387 21.1035L34.1338 21.6172C34.0993 22.8383 33.9212 24.0522 33.6025 25.2344C32.4169 29.5477 29.3195 32.6624 25.249 33.8711C21.911 34.8613 18.0271 34.2388 14.4023 32.2197C13.6902 31.823 13.9885 30.7161 14.7988 30.748C16.2885 30.8072 17.6461 30.4413 19.1504 29.6123L19.3271 29.5107L19.0557 29.3496C16.6014 27.8419 15.3091 25.8006 15.0176 23.417L14.9883 23.1406C14.815 21.1964 15.288 19.3505 16.0039 17.8379L16.0527 17.7363L16.1465 17.5527C16.4218 17.0528 17.1125 17.0141 17.4395 17.4805C19.0304 19.7515 21.3862 21.1133 24.0479 21.3135L24.2334 21.3232L24.2354 20.8555C24.2973 18.9491 25.4471 17.2817 27.1992 16.5195L27.4121 16.4326ZM31.5879 18.457C30.7556 17.4975 29.4648 17.3218 27.9502 17.9014C26.6051 18.4162 25.7487 19.6567 25.7676 21.0742V22.1201C25.7675 22.5451 25.4362 22.8931 25.0205 22.9043C21.9269 22.9852 19.0944 21.7447 17.0479 19.4717L17.0107 19.4277L16.9219 19.6885C16.6252 20.6072 16.4521 21.6211 16.4951 22.6533L16.5176 22.998C16.7307 25.3881 18.1451 27.3529 21.2148 28.7207C21.771 28.9689 21.8388 29.7486 21.334 30.0928C20.1141 30.9233 18.9838 31.5207 17.8545 31.8867L17.5967 31.9639L18.0469 32.1182C20.2881 32.8404 22.5161 32.9665 24.5059 32.4521L24.8213 32.3643C28.3893 31.3048 31.0848 28.5942 32.124 24.8135C32.4499 23.6047 32.6113 22.3554 32.6045 21.1035L32.6055 21.04C32.6106 20.8959 32.6409 20.7813 32.7402 20.5605L32.8438 20.3418L33.6914 18.6416L33.873 18.2607L33.5771 18.3477L32.3799 18.6895C32.0945 18.7755 31.7853 18.6845 31.5879 18.457Z" fill="#212121"/>
</svg>
